<?xml version="1.0" standalone="no"?>
<!DOCTYPE svg PUBLIC "-//W3C//DTD SVG 20010904//EN"
 "http://www.w3.org/TR/2001/REC-SVG-20010904/DTD/svg10.dtd">
<svg version="1.0" xmlns="http://www.w3.org/2000/svg"
 width="256.000000pt" height="256.000000pt" viewBox="0 0 256.000000 256.000000"
 preserveAspectRatio="xMidYMid meet">
<metadata>
Created by potrace 1.11, written by Peter Selinger 2001-2013
</metadata>
<g transform="translate(0.000000,256.000000) scale(0.100000,-0.100000)"
fill="#000000" stroke="none">
<path d="M1327 2454 c-1 -1 -33 -4 -72 -7 -397 -33 -716 -377 -719 -777 -1
-197 39 -320 164 -505 101 -150 146 -226 177 -297 26 -61 27 -70 29 -269 2
-278 3 -279 204 -279 119 0 120 0 120 -23 0 -42 68 -90 116 -81 44 8 71 30 85
69 l13 35 124 0 124 0 34 34 34 34 1 193 c0 107 3 207 5 222 9 52 62 150 173
320 66 101 122 199 140 245 26 69 33 96 47 182 6 37 5 190 -2 225 -33 178 -95
303 -213 428 -135 143 -313 229 -509 246 -40 4 -74 6 -75 5z m173 -239 c91
-28 171 -76 241 -145 114 -113 168 -233 174 -390 7 -161 -20 -238 -153 -436
-114 -171 -168 -269 -192 -351 l-13 -41 -58 1 -59 1 0 119 c0 128 -10 163 -56
188 -49 26 -119 5 -145 -42 -6 -12 -12 -75 -13 -142 l-1 -122 -57 -2 -57 -2
-12 37 c-22 70 -89 193 -184 337 -53 79 -106 168 -119 197 -105 239 -37 516
169 684 49 40 137 92 166 98 8 2 21 6 29 9 71 29 248 30 340 2z m45 -1622 c-1
-27 -2 -51 -3 -54 -1 -3 -96 -6 -212 -6 l-210 1 0 53 0 53 213 0 214 0 -2 -47z"/>
<path d="M1312 1969 c-25 -10 -38 -50 -24 -76 8 -13 30 -23 73 -31 102 -19
159 -77 179 -183 11 -58 29 -80 63 -73 76 14 52 165 -43 267 -63 69 -189 117
-248 96z"/>
</g>
</svg>
